STARTFONT 2.1
FONT -Monotype-Bookman Old Style-Bold-I-Normal--25-180-100-100-P-144-iso8859-2
SIZE 18 100 100
FONTBOUNDINGBOX 40 30 -5 -6

STARTPROPERTIES 24
FOUNDRY "Monotype"
FAMILY_NAME "Bookman Old Style"
WEIGHT_NAME "Bold"
SLANT "I"
SETWIDTH_NAME "Normal"
ADD_STYLE_NAME ""
PIXEL_SIZE 25
POINT_SIZE 180
RESOLUTION_X 100
RESOLUTION_Y 100
SPACING "P"
AVERAGE_WIDTH 144
CHARSET_REGISTRY "iso8859"
CHARSET_ENCODING "2"
FACE_NAME "Bookman Old Style Bold Italic ISO Latin2"
_DEC_DEVICE_FONTNAMES "PS=bookmanoldstyle-bit-lat2"
COPYRIGHT "Copyright (c) 1993 Monotype Typography Ltd."
CAP_HEIGHT 20
X_HEIGHT 15
WEIGHT 10
QUAD_WIDTH 16
DEFAULT_CHAR 160
FONT_DESCENT 6
FONT_ASCENT 24
ENDPROPERTIES

CHARS 191

STARTCHAR space
ENCODING 32
SWIDTH 340 0
DWIDTH 9 0
BBX 0 0 0 0
BITMAP
ENDCHAR

STARTCHAR exclam
ENCODING 33
SWIDTH 320 0
DWIDTH 8 0
BBX 7 17 3 0
BITMAP
0C
1E
1E
1E
3C
3C
3C
38
38
38
30
30
00
F0
F0
F0
F0
ENDCHAR

STARTCHAR quotedbl
ENCODING 34
SWIDTH 380 0
DWIDTH 9 0
BBX 8 7 4 10
BITMAP
67
E7
E6
C6
C4
84
84
ENDCHAR

STARTCHAR numbersign
ENCODING 35
SWIDTH 600 0
DWIDTH 15 0
BBX 13 17 3 0
BITMAP
0660
0E60
0CE0
0CE0
0CC0
7FF8
6FF8
1CC0
1CC0
FFF0
FFF0
1980
1980
1980
3980
3180
3380
ENDCHAR

STARTCHAR dollar
ENCODING 36
SWIDTH 680 0
DWIDTH 17 0
BBX 14 23 3 -3
BITMAP
0060
0060
00E0
07CC
1FFC
3EFC
79DC
79DC
7D8C
7F80
3FE0
1FF0
07F8
C37C
E33C
E73C
FA78
FFF8
DFF0
0F80
0C00
0C00
0C00
ENDCHAR

STARTCHAR percent
ENCODING 37
SWIDTH 880 0
DWIDTH 22 0
BBX 20 17 3 0
BITMAP
0F00C0
3F8080
71C180
71C300
E1C600
E1CC00
E39800
773000
7E6000
0063E0
00CE70
018E70
031C70
061C70
0C1CE0
181CC0
380F80
ENDCHAR

STARTCHAR ampersand
ENCODING 38
SWIDTH 980 0
DWIDTH 24 0
BBX 23 17 2 0
BITMAP
01F800
03FC00
079E00
071E00
071C00
03FC00
07E1F8
3FF3F8
7C70E0
F878C0
F03D8C
F03F9E
F01F1E
F81F1C
7FFFFC
3FF7F8
0F81E0
ENDCHAR

STARTCHAR quoteright
ENCODING 39
SWIDTH 320 0
DWIDTH 8 0
BBX 7 9 3 9
BITMAP
3C
3C
3E
3E
0C
1C
F8
70
40
ENDCHAR

STARTCHAR parenleft
ENCODING 40
SWIDTH 260 0
DWIDTH 7 0
BBX 8 24 2 -6
BITMAP
02
07
0F
0E
1E
3C
3C
38
78
78
70
70
F0
F0
F0
E0
E0
E0
E0
E0
E0
70
70
20
ENDCHAR

STARTCHAR parenright
ENCODING 41
SWIDTH 260 0
DWIDTH 7 0
BBX 8 24 0 -6
BITMAP
02
0E
06
07
07
07
07
07
07
0F
0F
0F
0F
0E
1E
1E
1C
3C
3C
38
78
F0
E0
40
ENDCHAR

STARTCHAR asterisk
ENCODING 42
SWIDTH 460 0
DWIDTH 11 0
BBX 10 10 3 7
BITMAP
0600
0E00
6E00
F580
7FC0
1D80
7600
7700
2700
0200
ENDCHAR

STARTCHAR plus
ENCODING 43
SWIDTH 600 0
DWIDTH 15 0
BBX 12 12 3 3
BITMAP
0600
0600
0600
0600
0600
FFF0
FFF0
0600
0600
0600
0600
0600
ENDCHAR

STARTCHAR comma
ENCODING 44
SWIDTH 340 0
DWIDTH 9 0
BBX 7 9 1 -5
BITMAP
3C
3C
7E
3E
0C
1C
78
E0
40
ENDCHAR

STARTCHAR minus
ENCODING 45
SWIDTH 600 0
DWIDTH 15 0
BBX 13 2 3 8
BITMAP
FFF8
FFF8
ENDCHAR

STARTCHAR period
ENCODING 46
SWIDTH 340 0
DWIDTH 9 0
BBX 5 5 2 0
BITMAP
70
F8
F8
F0
60
ENDCHAR

STARTCHAR slash
ENCODING 47
SWIDTH 360 0
DWIDTH 9 0
BBX 14 22 -1 -4
BITMAP
001C
001C
0038
0038
0070
0070
00E0
01E0
01C0
0380
0380
0700
0700
0E00
0E00
1C00
1C00
3800
7800
7000
F000
E000
ENDCHAR

STARTCHAR zero
ENCODING 48
SWIDTH 680 0
DWIDTH 17 0
BBX 15 17 3 0
BITMAP
01E0
07F8
1FFC
1E3E
3C1E
781E
781E
F81E
F01E
F03E
F03C
F03C
F078
78F8
7FF0
3FC0
0F00
ENDCHAR

STARTCHAR one
ENCODING 49
SWIDTH 680 0
DWIDTH 17 0
BBX 11 17 4 0
BITMAP
0060
07E0
1FC0
1FC0
03C0
03C0
03C0
0780
0780
0780
0780
0700
0F00
0F00
0F00
FFE0
FFE0
ENDCHAR

STARTCHAR two
ENCODING 50
SWIDTH 680 0
DWIDTH 17 0
BBX 16 18 2 -1
BITMAP
03F8
07FE
0FFF
1C1F
380F
380F
381F
001E
007C
00F8
01E0
07C6
0C0E
3FFE
FFFC
FFFC
FFFC
0018
ENDCHAR

STARTCHAR three
ENCODING 51
SWIDTH 680 0
DWIDTH 17 0
BBX 15 17 2 0
BITMAP
03F0
0FFC
1FFE
1C3E
381E
001E
003C
03E8
03F0
0078
403C
F03C
F03C
F87C
7FF8
3FE0
0F80
ENDCHAR

STARTCHAR four
ENCODING 52
SWIDTH 680 0
DWIDTH 17 0
BBX 16 17 2 0
BITMAP
001E
007C
00FC
01FC
03DC
0F3C
1E78
3C78
7078
7FFF
FFFE
FFFE
00F0
00F0
00E0
01E0
01E0
ENDCHAR

STARTCHAR five
ENCODING 53
SWIDTH 680 0
DWIDTH 17 0
BBX 15 18 3 0
BITMAP
0002
0FFE
0FFE
1FFE
1FFC
1C00
3800
3FE0
3FF0
7FF8
007C
003C
E03C
F03C
F078
7FF0
3FE0
0F00
ENDCHAR

STARTCHAR six
ENCODING 54
SWIDTH 680 0
DWIDTH 17 0
BBX 15 17 3 0
BITMAP
007E
03FC
0FE0
1F00
3C00
79C0
7FF0
FFF8
F87C
F83C
F03C
F03C
F07C
78F8
7FF0
3FE0
0F80
ENDCHAR

STARTCHAR seven
ENCODING 55
SWIDTH 680 0
DWIDTH 17 0
BBX 16 18 4 0
BITMAP
3000
3FFF
3FFF
7FFF
7FDC
E038
E070
00E0
01E0
03C0
0780
0F80
0F00
1F00
1E00
3E00
3E00
3C00
ENDCHAR

STARTCHAR eight
ENCODING 56
SWIDTH 680 0
DWIDTH 17 0
BBX 15 17 3 0
BITMAP
03E0
0FFC
1FFC
3C1E
3C1E
3E1C
1F78
1FE0
0FF0
3DF8
787C
703C
F03C
F038
7FF8
3FF0
0F80
ENDCHAR

STARTCHAR nine
ENCODING 57
SWIDTH 680 0
DWIDTH 17 0
BBX 15 17 3 0
BITMAP
03E0
0FF8
1FFC
3E3C
7C1E
781E
781E
783E
7C7E
3FFE
1FFC
073C
0078
01F0
1FE0
7F80
F800
ENDCHAR

STARTCHAR colon
ENCODING 58
SWIDTH 340 0
DWIDTH 9 0
BBX 7 12 2 0
BITMAP
1C
3E
3E
3C
00
00
00
20
78
F8
F0
60
ENDCHAR

STARTCHAR semicolon
ENCODING 59
SWIDTH 340 0
DWIDTH 9 0
BBX 8 17 1 -5
BITMAP
06
1F
1F
1E
0C
00
00
00
38
3C
7E
3E
0C
1C
78
F0
40
ENDCHAR

STARTCHAR less
ENCODING 60
SWIDTH 620 0
DWIDTH 16 0
BBX 12 13 4 2
BITMAP
0030
00F0
03E0
0F80
3E00
F800
E000
F800
3E00
0F80
03E0
00F0
0030
ENDCHAR

STARTCHAR equal
ENCODING 61
SWIDTH 600 0
DWIDTH 15 0
BBX 13 7 3 5
BITMAP
FFF8
FFF8
0000
0000
0000
FFF8
FFF8
ENDCHAR

STARTCHAR greater
ENCODING 62
SWIDTH 620 0
DWIDTH 16 0
BBX 12 13 4 2
BITMAP
8000
E000
FC00
1F00
07C0
01F0
0070
01F0
07C0
3F00
F800
E000
8000
ENDCHAR

STARTCHAR question
ENCODING 63
SWIDTH 620 0
DWIDTH 16 0
BBX 13 17 4 0
BITMAP
1F00
7FE0
FFF0
F0F8
E078
0078
00F8
3FF0
3FE0
3F80
3000
7000
0000
F000
F000
F000
F000
ENDCHAR

STARTCHAR at
ENCODING 64
SWIDTH 780 0
DWIDTH 20 0
BBX 22 23 1 -6
BITMAP
00FF00
0300C0
0C0020
180010
300010
603B88
60EB08
41C708
C18708
838E08
838E08
870E08
871E10
872C10
C7DC20
47DCC4
438F08
200008
200010
100020
0C00C0
038300
007C00
ENDCHAR

STARTCHAR A
ENCODING 65
SWIDTH 720 0
DWIDTH 18 0
BBX 19 17 0 0
BITMAP
001E00
003E00
007E00
007E00
00EF00
00EF00
01CF00
038F00
038F00
07FF00
0FFF80
0E0780
1E0780
1C0780
3C0F80
FF1FE0
FE3FC0
ENDCHAR

STARTCHAR B
ENCODING 66
SWIDTH 720 0
DWIDTH 18 0
BBX 18 17 1 0
BITMAP
1FFE00
1FFF80
0FFFC0
0783C0
0783C0
0F07C0
0F0F80
0FFD00
0FFE00
1E0F80
1E0780
1E0780
1E0F80
3E0F80
FFFF00
FFFE00
FFF000
ENDCHAR

STARTCHAR C
ENCODING 67
SWIDTH 700 0
DWIDTH 17 0
BBX 17 17 2 0
BITMAP
01F300
07FF00
1FFF80
3F0780
3E0380
7C0380
780380
F80000
F80000
F80000
F80000
F80200
7C0700
7E1E00
3FFC00
1FF800
03E000
ENDCHAR

STARTCHAR D
ENCODING 68
SWIDTH 760 0
DWIDTH 19 0
BBX 20 17 1 0
BITMAP
0FFE00
1FFF80
0FFFC0
0783E0
0781E0
0781F0
0781F0
0F01F0
0F01F0
0F01E0
0F03E0
1F03E0
1E07C0
1E0F80
7FFF00
FFFE00
FFF000
ENDCHAR

STARTCHAR E
ENCODING 69
SWIDTH 720 0
DWIDTH 18 0
BBX 19 17 1 0
BITMAP
0FFF80
1FFFC0
0FFFC0
0781C0
0780E0
0F9C40
0F1C00
0FF800
0FF800
0F3800
1E38C0
1E31C0
1E03C0
1E0780
FFFF80
FFFF00
FFFF00
ENDCHAR

STARTCHAR F
ENCODING 70
SWIDTH 660 0
DWIDTH 16 0
BBX 18 17 1 0
BITMAP
0FFF80
1FFF80
1FFF80
0783C0
0781C0
079CC0
0F9800
0F3800
0FF800
0FF800
1F3000
1E3000
1E0000
1E0000
3E0000
FF8000
FF0000
ENDCHAR

STARTCHAR G
ENCODING 71
SWIDTH 760 0
DWIDTH 19 0
BBX 19 17 2 0
BITMAP
00F180
07FF80
1FFF80
3F0780
3E0380
7C0380
780000
F80000
F83FE0
F83FC0
F80F00
780F00
7C0F00
7E1E00
3FFE00
1FFE00
07CE00
ENDCHAR

STARTCHAR H
ENCODING 72
SWIDTH 800 0
DWIDTH 20 0
BBX 22 17 1 0
BITMAP
1FF3FC
1FF7FC
07C1F0
0781E0
0781E0
0F81E0
0F03E0
0FFFC0
0FFFC0
0FFFC0
1F03C0
1E0780
1E0780
1E0780
3E0F80
FFBFE0
FF3FC0
ENDCHAR

STARTCHAR I
ENCODING 73
SWIDTH 380 0
DWIDTH 9 0
BBX 12 17 1 0
BITMAP
1FF0
1FE0
0780
0780
0780
0F00
0F00
0F00
0F00
1F00
1E00
1E00
1E00
1E00
3E00
FF00
FF00
ENDCHAR

STARTCHAR J
ENCODING 74
SWIDTH 620 0
DWIDTH 16 0
BBX 18 17 1 0
BITMAP
007FC0
007FC0
001E00
001E00
001E00
003E00
003C00
003C00
003C00
607C00
F07800
F07800
F07800
F8F000
7FF000
3FC000
1F8000
ENDCHAR

STARTCHAR K
ENCODING 75
SWIDTH 780 0
DWIDTH 20 0
BBX 21 17 1 0
BITMAP
1FF7F8
1FF7F8
07C3E0
0787C0
078F00
0F9E00
0F3800
0F7C00
0FFC00
0FDE00
1F9E00
1E1F00
1E0F00
1E0780
3E0FC0
FF9FE0
FF3FE0
ENDCHAR

STARTCHAR L
ENCODING 76
SWIDTH 640 0
DWIDTH 16 0
BBX 18 17 0 0
BITMAP
0FF000
1FF000
07C000
078000
078000
078000
078000
0F0000
0F0000
0F0000
0F00C0
1F01C0
1E0380
1E0F80
7FFF00
FFFF00
FFFE00
ENDCHAR

STARTCHAR M
ENCODING 77
SWIDTH 860 0
DWIDTH 22 0
BBX 24 17 1 0
BITMAP
1FE0FF
1FE1FE
0761BC
06E3B8
0EE378
0EE778
0EE6F0
0EEEF0
0CECF0
1CFCF0
1CF8E0
1CF9E0
18F1E0
38F1E0
38F3E0
FEE7F0
FEEFF0
ENDCHAR

STARTCHAR N
ENCODING 78
SWIDTH 740 0
DWIDTH 18 0
BBX 21 17 1 0
BITMAP
1FC3F8
1FE7F0
07E1E0
07E1C0
0771C0
0EF1C0
0EF380
0E7B80
0E7B80
0C7B80
1C7B00
1C3F00
1C3F00
1C3F00
3C1E00
FE1E00
FE1E00
ENDCHAR

STARTCHAR O
ENCODING 79
SWIDTH 760 0
DWIDTH 19 0
BBX 18 17 2 0
BITMAP
01F000
07FE00
1FFF00
3F0F80
3E0780
7C07C0
7807C0
F807C0
F807C0
F807C0
F80780
F80F80
780F00
7C3F00
3FFE00
1FF800
03E000
ENDCHAR

STARTCHAR P
ENCODING 80
SWIDTH 640 0
DWIDTH 16 0
BBX 17 17 1 0
BITMAP
0FFC00
1FFF00
1FFF80
078F80
078780
078780
0F8F80
0F1F80
0FFF00
0FFE00
1FF000
1E0000
1E0000
1E0000
3E0000
FF8000
FF0000
ENDCHAR

STARTCHAR Q
ENCODING 81
SWIDTH 760 0
DWIDTH 19 0
BBX 18 23 2 -6
BITMAP
01F000
07FE00
0FFF00
1F0F80
3E0780
7C07C0
7C07C0
7807C0
F807C0
F807C0
F807C0
F80780
F80F80
780F00
7C1F00
3FFE00
1FF800
07E000
078000
078400
07FE00
03FE00
00F000
ENDCHAR

STARTCHAR R
ENCODING 82
SWIDTH 740 0
DWIDTH 18 0
BBX 18 17 1 0
BITMAP
1FFE00
1FFF80
0FFFC0
0787C0
0783C0
0F03C0
0F07C0
0FFF80
0FFF00
1FF800
1E7C00
1E3C00
1E3E00
3E1E00
3E1F00
FF0FC0
FF0F80
ENDCHAR

STARTCHAR S
ENCODING 83
SWIDTH 700 0
DWIDTH 17 0
BBX 17 17 2 0
BITMAP
03E300
0FFB00
1FFF00
3C0F00
3C0780
3E0380
3F8000
1FF000
0FFC00
01FE00
E03F00
F00F00
F80F00
FC1E00
FFFE00
EFFC00
C3F000
ENDCHAR

STARTCHAR T
ENCODING 84
SWIDTH 700 0
DWIDTH 17 0
BBX 17 18 3 0
BITMAP
100300
3FFF00
3FFF00
79E780
71E380
E3E380
C3C180
03C000
03C000
03C000
07C000
078000
078000
078000
0F8000
0F8000
3FC000
3FC000
ENDCHAR

STARTCHAR U
ENCODING 85
SWIDTH 740 0
DWIDTH 18 0
BBX 18 17 4 0
BITMAP
FF9FC0
FF1FC0
3C0700
3C0E00
7C0E00
780E00
780E00
780C00
781C00
F01C00
F01C00
F01800
F03800
F87800
7FF000
3FE000
0F8000
ENDCHAR

STARTCHAR V
ENCODING 86
SWIDTH 660 0
DWIDTH 16 0
BBX 17 17 3 0
BITMAP
7FBF80
FF3F80
3C0E00
3C1E00
3C1C00
3C3C00
3C3800
3E7800
1E7000
1EE000
1EE000
1EC000
1FC000
1F8000
1F8000
1F0000
0F0000
ENDCHAR

STARTCHAR W
ENCODING 87
SWIDTH 1000 0
DWIDTH 25 0
BBX 25 17 4 0
BITMAP
FF7F3F80
FEFF7F00
783C1E00
783C1C00
783C3C00
783C3800
787C7800
7C7C7000
7CFCE000
3CDCE000
3D9DC000
3F9EC000
3F1F8000
3F1F8000
3E1F0000
3E1F0000
3C1E0000
ENDCHAR

STARTCHAR X
ENCODING 88
SWIDTH 740 0
DWIDTH 18 0
BBX 22 17 0 0
BITMAP
0FFBFC
0FF3F8
07E1F0
03E1C0
01E380
00F780
00FF00
007E00
00FC00
01FC00
03BE00
079E00
0F1F00
1E0F80
3E0FC0
7F3FE0
FF3FE0
ENDCHAR

STARTCHAR Y
ENCODING 89
SWIDTH 660 0
DWIDTH 16 0
BBX 17 17 3 0
BITMAP
7FBF80
FF3F80
3C1E00
3E1C00
1E3C00
1E7800
1F7000
0F6000
0FC000
07C000
078000
078000
0F8000
0F0000
0F8000
3FC000
7FC000
ENDCHAR

STARTCHAR Z
ENCODING 90
SWIDTH 680 0
DWIDTH 17 0
BBX 18 17 1 0
BITMAP
07FFC0
07FFC0
0FEFC0
1E1F80
1C3F00
387E00
08FC00
01F800
03F000
07E000
0FC180
1F8380
3F0700
7C1F00
FFFE00
FFFE00
FFFC00
ENDCHAR

STARTCHAR bracketleft
ENCODING 91
SWIDTH 260 0
DWIDTH 7 0
BBX 11 23 0 -6
BITMAP
07E0
07C0
0700
0F00
0E00
0E00
0E00
1E00
1C00
1C00
1C00
3C00
3800
3800
3800
3800
7800
7000
7000
7000
F000
FC00
F800
ENDCHAR

STARTCHAR backslash
ENCODING 92
SWIDTH 580 0
DWIDTH 15 0
BBX 15 22 1 -4
BITMAP
E000
7000
7000
3800
3800
1C00
1C00
0E00
0F00
0700
0380
0380
01C0
01C0
00E0
00E0
0070
0070
0038
003C
001C
000E
ENDCHAR

STARTCHAR bracketright
ENCODING 93
SWIDTH 260 0
DWIDTH 7 0
BBX 11 23 -2 -6
BITMAP
07E0
07C0
01C0
01C0
03C0
0380
0380
0380
0780
0700
0700
0700
0700
0F00
0E00
0E00
0E00
1E00
1C00
1C00
1C00
FC00
F800
ENDCHAR

STARTCHAR asciicircum
ENCODING 94
SWIDTH 620 0
DWIDTH 16 0
BBX 12 10 4 7
BITMAP
0E00
0F00
1F00
1D80
3B80
39C0
71C0
70E0
E0E0
E070
ENDCHAR

STARTCHAR underscore
ENCODING 95
SWIDTH 500 0
DWIDTH 13 0
BBX 13 1 0 -3
BITMAP
FFF8
ENDCHAR

STARTCHAR quoteleft
ENCODING 96
SWIDTH 320 0
DWIDTH 8 0
BBX 6 9 4 9
BITMAP
04
1C
38
70
E0
F8
F8
F8
70
ENDCHAR

STARTCHAR a
ENCODING 97
SWIDTH 680 0
DWIDTH 17 0
BBX 16 12 2 0
BITMAP
078E
1FEC
3FFC
7C3C
783C
F078
F078
F0F8
F1FA
FFFF
7F7E
3C3C
ENDCHAR

STARTCHAR b
ENCODING 98
SWIDTH 600 0
DWIDTH 15 0
BBX 14 18 2 0
BITMAP
0300
3E00
7E00
7E00
1E00
1E00
3CF0
3DF8
3FFC
3E3C
7C3C
783C
787C
7878
70F8
FFF0
EFE0
E780
ENDCHAR

STARTCHAR c
ENCODING 99
SWIDTH 560 0
DWIDTH 14 0
BBX 13 12 2 0
BITMAP
03C0
1FF0
3FF8
7C78
7870
F000
F000
F000
F860
7FF0
7FC0
1F00
ENDCHAR

STARTCHAR d
ENCODING 100
SWIDTH 680 0
DWIDTH 17 0
BBX 16 18 2 0
BITMAP
0003
003E
007E
007E
001E
001E
079C
1FFC
3FFC
7C3C
7838
F878
F078
F0F8
F1F8
FFFF
7F7E
3C3C
ENDCHAR

STARTCHAR e
ENCODING 101
SWIDTH 560 0
DWIDTH 14 0
BBX 13 12 2 0
BITMAP
07F0
1FF8
3E38
7C78
F8F8
FFF0
FF80
F000
F878
7FF0
7FE0
1F00
ENDCHAR

STARTCHAR f
ENCODING 102
SWIDTH 420 0
DWIDTH 10 0
BBX 19 23 -3 -5
BITMAP
000780
001FC0
003FE0
0079C0
007800
007800
01FE00
03FC00
00F000
00F000
00E000
01E000
01E000
01E000
01E000
01C000
03C000
03C000
03C000
738000
FF8000
7F0000
3C0000
ENDCHAR

STARTCHAR g
ENCODING 103
SWIDTH 620 0
DWIDTH 16 0
BBX 16 17 1 -5
BITMAP
03C7
0FF6
1FFE
3E1E
3C1E
7C3C
783C
787C
78FC
7FF8
3FB8
0E78
40F0
E1F0
FFE0
FFC0
3E00
ENDCHAR

STARTCHAR h
ENCODING 104
SWIDTH 700 0
DWIDTH 17 0
BBX 16 18 2 0
BITMAP
0300
3F00
3F00
7E00
1E00
1E00
1EF8
1DFC
3FFC
3F3C
3E3C
3C3C
7C78
7878
7879
787F
F07F
F01C
ENDCHAR

STARTCHAR i
ENCODING 105
SWIDTH 380 0
DWIDTH 9 0
BBX 7 17 3 0
BITMAP
1E
1E
1E
1C
00
0C
FC
FC
38
78
78
78
70
F2
FE
7E
38
ENDCHAR

STARTCHAR j
ENCODING 106
SWIDTH 320 0
DWIDTH 8 0
BBX 13 22 -3 -5
BITMAP
0078
0078
0078
0078
0000
0030
03F0
03F0
00E0
01E0
01E0
01E0
01C0
03C0
03C0
03C0
0380
0780
E780
FF00
FE00
7800
ENDCHAR

STARTCHAR k
ENCODING 107
SWIDTH 700 0
DWIDTH 17 0
BBX 17 18 2 0
BITMAP
030000
3F0000
3F0000
3F0000
0E0000
1E0000
1E1E00
1E3F80
1EFF00
3DC300
3DE000
3FE000
3EE000
7CF000
78F100
787F80
787F00
F01C00
ENDCHAR

STARTCHAR l
ENCODING 108
SWIDTH 380 0
DWIDTH 9 0
BBX 7 19 3 0
BITMAP
06
7E
7E
5E
3C
3C
3C
3C
38
78
78
78
78
70
F0
F2
FE
7E
38
ENDCHAR

STARTCHAR m
ENCODING 109
SWIDTH 960 0
DWIDTH 24 0
BBX 23 12 2 0
BITMAP
0EF0F0
7DFBF8
FFFFF8
3F3E78
3E3C78
3C7C70
3C78F0
7878F0
7878F2
78F0FE
70F0FE
F0F078
ENDCHAR

STARTCHAR n
ENCODING 110
SWIDTH 680 0
DWIDTH 17 0
BBX 17 12 2 0
BITMAP
0EF800
7DFC00
FFFC00
3F3C00
3E3C00
3C3C00
3C3800
787800
787900
787F80
703F00
F01C00
ENDCHAR

STARTCHAR o
ENCODING 111
SWIDTH 600 0
DWIDTH 15 0
BBX 13 11 2 1
BITMAP
0780
1FE0
3FF0
7878
F878
F078
F078
F0F8
F0F0
7FE0
3FC0
ENDCHAR

STARTCHAR p
ENCODING 112
SWIDTH 660 0
DWIDTH 16 0
BBX 18 17 -1 -5
BITMAP
01CF00
0FDF80
0FFFC0
07E3C0
07C3C0
0783C0
0787C0
0F0780
0F0F80
0FFF00
0FFE00
1E7800
1E0000
1E0000
3E0000
7F8000
FF0000
ENDCHAR

STARTCHAR q
ENCODING 113
SWIDTH 620 0
DWIDTH 16 0
BBX 14 17 2 -5
BITMAP
078C
1FEC
3FFC
7C3C
7838
F878
F078
F0F8
F1F0
FFF0
7F70
3CF0
00F0
01E0
01E0
07F8
07F8
ENDCHAR

STARTCHAR r
ENCODING 114
SWIDTH 500 0
DWIDTH 13 0
BBX 13 12 2 0
BITMAP
1EF0
7EF8
7FF8
3F30
3E00
3C00
3C00
7800
7800
7800
7800
F000
ENDCHAR

STARTCHAR s
ENCODING 115
SWIDTH 540 0
DWIDTH 14 0
BBX 14 12 1 0
BITMAP
0FF0
1FF8
3C7C
3C18
3F80
1FE0
0FF0
01F8
F078
F8F8
7FF0
1FC0
ENDCHAR

STARTCHAR t
ENCODING 116
SWIDTH 440 0
DWIDTH 11 0
BBX 10 17 3 0
BITMAP
0E00
0E00
1C00
1C00
7C00
FFC0
BF80
7800
7800
7800
7800
F000
F100
F380
FF00
7E00
3C00
ENDCHAR

STARTCHAR u
ENCODING 117
SWIDTH 680 0
DWIDTH 17 0
BBX 16 12 2 0
BITMAP
0E1E
7E1C
FC3C
3C3C
3C3C
3C78
3878
78F8
79F9
7FFF
7F7F
3C3C
ENDCHAR

STARTCHAR v
ENCODING 118
SWIDTH 540 0
DWIDTH 14 0
BBX 12 13 3 0
BITMAP
0060
1CF0
FCF0
F8F0
7870
7870
7870
70E0
F1E0
F3C0
FF80
FF00
3C00
ENDCHAR

STARTCHAR w
ENCODING 119
SWIDTH 860 0
DWIDTH 22 0
BBX 21 13 2 0
BITMAP
000020
0E1E78
7E1E78
FC3C78
3C3C38
3C3C38
3C7C38
387870
78F870
79F8E0
7FBFC0
7F3F80
1C1E00
ENDCHAR

STARTCHAR x
ENCODING 120
SWIDTH 620 0
DWIDTH 16 0
BBX 17 13 0 0
BITMAP
000300
030F80
0F9F80
1F9F00
07D800
03F000
03E000
03E000
07F000
1EF100
FC7F80
F87F00
701C00
ENDCHAR

STARTCHAR y
ENCODING 121
SWIDTH 600 0
DWIDTH 15 0
BBX 16 17 1 -5
BITMAP
070F
3F1E
7E1E
1E1E
1E1E
1E3C
1C3C
3C7C
3CFC
3FF8
3FB8
0E78
40F0
E0F0
FFE0
FFC0
3E00
ENDCHAR

STARTCHAR z
ENCODING 122
SWIDTH 560 0
DWIDTH 14 0
BBX 14 12 1 0
BITMAP
0FC4
3FFC
3CFC
39F0
33E0
07C0
0F80
1F18
3E3C
7C3C
FFF8
03E0
ENDCHAR

STARTCHAR braceleft
ENCODING 123
SWIDTH 300 0
DWIDTH 8 0
BBX 9 22 1 -5
BITMAP
0380
0600
0C00
1C00
1C00
1C00
1C00
1C00
1800
3000
C000
6000
3000
3000
7000
7000
E000
E000
E000
C000
6000
1000
ENDCHAR

STARTCHAR bar
ENCODING 124
SWIDTH 620 0
DWIDTH 16 0
BBX 3 24 8 -5
BITMAP
E0
E0
E0
E0
E0
E0
E0
E0
E0
E0
E0
E0
E0
E0
E0
E0
E0
E0
E0
E0
E0
E0
E0
E0
ENDCHAR

STARTCHAR braceright
ENCODING 125
SWIDTH 300 0
DWIDTH 8 0
BBX 9 22 0 -5
BITMAP
0700
0180
0180
0380
0380
0700
0700
0700
0600
0300
0080
0300
0C00
0C00
1C00
1C00
1C00
1C00
1800
3800
7000
8000
ENDCHAR

STARTCHAR asciitilde
ENCODING 126
SWIDTH 620 0
DWIDTH 16 0
BBX 12 4 4 7
BITMAP
7C20
FF70
CFE0
83C0
ENDCHAR

STARTCHAR space
ENCODING 160
SWIDTH 340 0
DWIDTH 10 0
BBX 0 0 0 0
BITMAP
ENDCHAR

STARTCHAR Aogonek
ENCODING 161
SWIDTH 720 0
DWIDTH 18 0
BBX 18 22 0 -5
BITMAP
001E00
003E00
007E00
007E00
00EE00
01EF00
01CF00
038F00
038F00
07FF00
0FFF00
0E0F80
1C0780
3C0780
7C0F80
FE3FC0
FE3FC0
000300
000600
000600
000780
000380
ENDCHAR

STARTCHAR breve
ENCODING 162
SWIDTH 460 0
DWIDTH 11 0
BBX 8 3 5 14
BITMAP
C3
FE
7C
ENDCHAR

STARTCHAR Lslash
ENCODING 163
SWIDTH 640 0
DWIDTH 16 0
BBX 18 17 0 0
BITMAP
0FF000
1FF000
07C000
078000
078000
079000
07B000
0FE000
0F8000
3F0000
7F00C0
1F01C0
1E0380
1E0F80
7FFF00
FFFF00
FFFE00
ENDCHAR

STARTCHAR currency
ENCODING 164
SWIDTH 680 0
DWIDTH 17 0
BBX 13 12 4 3
BITMAP
4010
EFB8
7FF0
38E0
7070
6030
6030
7070
3060
7FF0
FFF8
6730
ENDCHAR

STARTCHAR Lcaron
ENCODING 165
SWIDTH 640 0
DWIDTH 16 0
BBX 18 17 0 0
BITMAP
0FF380
1FF7C0
07C7C0
0782C0
078180
078380
078E00
0F0400
0F0000
0F0000
0F01C0
1F01C0
1E0380
1E0F80
7FFF00
FFFF00
FFFE00
ENDCHAR

STARTCHAR Sacute
ENCODING 166
SWIDTH 700 0
DWIDTH 17 0
BBX 17 23 2 0
BITMAP
003000
007800
00F800
01F000
00C000
000000
03E300
0FFB00
1FFF00
3C0F00
3C0780
3E0380
3F8000
1FF000
0FFC00
01FE00
E03F00
F00F00
F80F00
FC1E00
FFFE00
EFFC00
C3E000
ENDCHAR

STARTCHAR section
ENCODING 167
SWIDTH 620 0
DWIDTH 16 0
BBX 16 22 1 -5
BITMAP
00F8
03FE
07FF
0F0F
0F0F
0F86
0FF0
07FC
1FFE
1C7E
3C1E
3E0E
1FDC
1FF8
07F8
00FC
E03C
F03C
F87C
7FF8
3FF0
0780
ENDCHAR

STARTCHAR dieresis
ENCODING 168
SWIDTH 520 0
DWIDTH 13 0
BBX 10 4 4 14
BITMAP
71C0
F3C0
F3C0
E380
ENDCHAR

STARTCHAR Scaron
ENCODING 169
SWIDTH 700 0
DWIDTH 17 0
BBX 17 22 2 0
BITMAP
039C00
03FC00
00F000
004000
000000
03E300
0FFB00
1FFF00
3C0F00
3C0780
3E0380
3F8000
1FF000
0FFC00
01FE00
E03F00
F00F00
F80F00
FC1E00
FFFE00
EFFC00
C3E000
ENDCHAR

STARTCHAR Scommaaccent
ENCODING 170
SWIDTH 700 0
DWIDTH 17 0
BBX 17 23 2 -6
BITMAP
03E300
0FFB00
1FFF00
3C0F00
3C0780
3E0380
3F8000
1FF000
0FFC00
01FE00
E03F00
F00F00
F80F00
FC1E00
FFFE00
EFFC00
C3F000
000000
038000
038000
038000
018000
070000
ENDCHAR

STARTCHAR Tcaron
ENCODING 171
SWIDTH 700 0
DWIDTH 17 0
BBX 17 23 3 0
BITMAP
010400
03DC00
01F800
006000
000000
100300
3FFF00
3FFF00
79E780
71E380
E3E380
C3C380
03C000
03C000
03C000
07C000
078000
078000
078000
0F8000
0F8000
3FC000
3FC000
ENDCHAR

STARTCHAR Zacute
ENCODING 172
SWIDTH 680 0
DWIDTH 17 0
BBX 18 23 1 0
BITMAP
000E00
001E00
001E00
003C00
003000
000000
07FFC0
07FFC0
0FEFC0
1E1F80
1C3F00
387E00
08FC00
01F800
03F000
07E000
0FC180
1F8380
3F0700
7C1F00
FFFE00
FFFE00
FFFC00
ENDCHAR

STARTCHAR hyphen
ENCODING 173
SWIDTH 280 0
DWIDTH 7 0
BBX 6 3 2 5
BITMAP
FC
FC
F8
ENDCHAR

STARTCHAR Zcaron
ENCODING 174
SWIDTH 680 0
DWIDTH 17 0
BBX 18 23 1 0
BITMAP
004100
00E700
007F00
003C00
000000
000000
07FFC0
07FFC0
0FEFC0
1E1F80
1C3F00
387E00
08FC00
01F800
03F000
07E000
0FC180
1F8380
3F0700
7C1F00
FFFE00
FFFE00
FFFC00
ENDCHAR

STARTCHAR Zdotaccent
ENCODING 175
SWIDTH 680 0
DWIDTH 17 0
BBX 18 22 1 0
BITMAP
001C00
003C00
003C00
001800
000000
07FFC0
07FFC0
0FEFC0
1E1F80
1C3F00
387E00
08FC00
01F800
03F000
07E000
0FC180
1F8380
3F0700
3C1F00
7FFE00
FFFE00
FFFC00
ENDCHAR

STARTCHAR degree
ENCODING 176
SWIDTH 400 0
DWIDTH 10 0
BBX 7 7 5 10
BITMAP
38
7C
C6
C6
C6
7C
38
ENDCHAR

STARTCHAR aogonek
ENCODING 177
SWIDTH 680 0
DWIDTH 17 0
BBX 16 16 2 -4
BITMAP
079C
1FEC
3FFC
7C38
7878
F078
F0F8
F0F0
F1F2
FFFF
7F7E
1C38
00C0
00C0
00F0
0070
ENDCHAR

STARTCHAR ogonek
ENCODING 178
SWIDTH 320 0
DWIDTH 8 0
BBX 4 5 0 -5
BITMAP
60
C0
C0
F0
70
ENDCHAR

STARTCHAR lslash
ENCODING 179
SWIDTH 380 0
DWIDTH 9 0
BBX 9 19 2 0
BITMAP
0300
3F00
3F00
2F00
1E00
1E00
1E00
1F80
1F00
3C00
FC00
BC00
3C00
7800
7800
7900
7F00
3F00
1C00
ENDCHAR

STARTCHAR acute
ENCODING 180
SWIDTH 340 0
DWIDTH 9 0
BBX 5 5 6 14
BITMAP
18
38
78
F0
C0
ENDCHAR

STARTCHAR lcaron
ENCODING 181
SWIDTH 492 0
DWIDTH 12 0
BBX 12 19 3 0
BITMAP
0660
7EF0
7EF0
5EF0
3C30
3CE0
3DC0
3D00
3800
7800
7800
7800
7800
F000
F000
F200
FF00
7E00
3800
ENDCHAR

STARTCHAR sacute
ENCODING 182
SWIDTH 540 0
DWIDTH 14 0
BBX 14 19 1 0
BITMAP
0038
0078
00F8
01E0
0080
0000
03C0
0FF8
1FFC
3C3C
3E18
3FC0
1FF0
07F8
41F8
F078
F8F8
7FF0
1FC0
ENDCHAR

STARTCHAR caron
ENCODING 183
SWIDTH 480 0
DWIDTH 12 0
BBX 8 4 5 14
BITMAP
E7
FF
3C
10
ENDCHAR

STARTCHAR commaaccent
ENCODING 184
SWIDTH 333 0
DWIDTH 8 0
BBX 4 5 2 -6
BITMAP
60
70
70
30
E0
ENDCHAR

STARTCHAR scaron
ENCODING 185
SWIDTH 540 0
DWIDTH 14 0
BBX 14 19 1 0
BITMAP
0104
039C
01FC
00F0
0020
0000
03C0
0FF8
1FFC
3C3C
3E18
3FC0
1FF0
07F8
41F8
F078
F8F8
7FF0
1FC0
ENDCHAR

STARTCHAR scommaaccent
ENCODING 186
SWIDTH 540 0
DWIDTH 14 0
BBX 13 18 2 -6
BITMAP
0FE0
1FF0
3C78
3C30
3F00
1FE0
0FF0
03F0
F0F0
F8F0
7FE0
3FC0
0000
0C00
0E00
0E00
0600
1C00
ENDCHAR

STARTCHAR tcaron
ENCODING 187
SWIDTH 541 0
DWIDTH 14 0
BBX 12 18 4 0
BITMAP
0060
0050
0E30
0E20
1CC0
3C00
FF80
BF80
7800
7800
7800
7800
F000
F080
F3C0
FF80
7F00
3C00
ENDCHAR

STARTCHAR zacute
ENCODING 188
SWIDTH 560 0
DWIDTH 14 0
BBX 14 19 1 0
BITMAP
0010
0078
0078
00F0
01C0
0000
0000
1FFC
3FFC
3CF8
39F0
13E0
07C0
0F80
1F38
7C3C
7FF8
FFF8
01E0
ENDCHAR

STARTCHAR hungarumlaut
ENCODING 189
SWIDTH 560 0
DWIDTH 14 0
BBX 11 5 5 14
BITMAP
18E0
3DE0
79E0
F3C0
6300
ENDCHAR

STARTCHAR zcaron
ENCODING 190
SWIDTH 560 0
DWIDTH 14 0
BBX 14 18 1 0
BITMAP
0104
03DC
01FC
0070
0000
0000
0FC4
3FFC
3CFC
39F0
13E0
07C0
0F80
1F18
3E3C
7C78
FFF8
03E0
ENDCHAR

STARTCHAR zdotaccent
ENCODING 191
SWIDTH 560 0
DWIDTH 14 0
BBX 14 18 1 0
BITMAP
00E0
01E0
01E0
01C0
0000
0000
1FFC
3FFC
7CF8
39F0
33E0
07C0
1F80
3F38
7C38
FFF8
FFF0
03C0
ENDCHAR

STARTCHAR Racute
ENCODING 192
SWIDTH 740 0
DWIDTH 18 0
BBX 18 23 1 0
BITMAP
000700
000F00
001F00
003C00
001000
000000
1FFE00
1FFF80
0FFFC0
0787C0
0783C0
0F03C0
0F07C0
0FFF80
0FFF00
1FF800
1E7C00
1E3C00
1E3E00
3E1E00
3E1F00
FF0FC0
FF0F80
ENDCHAR

STARTCHAR Aacute
ENCODING 193
SWIDTH 720 0
DWIDTH 18 0
BBX 19 23 0 0
BITMAP
000700
000F00
000F00
001E00
001800
000000
001E00
003E00
007E00
007E00
00EF00
00EF00
01CF00
038F00
038F00
07FF00
0FFF80
0E0780
1E0780
1C0780
3C0F80
FF1FE0
FE3FC0
ENDCHAR

STARTCHAR Acircumflex
ENCODING 194
SWIDTH 720 0
DWIDTH 18 0
BBX 19 23 0 0
BITMAP
000200
000E00
007FC0
003B80
002080
000000
001E00
003E00
007E00
007E00
00EF00
00EF00
01CF00
038F00
038F00
07FF00
0FFF80
0E0780
1E0780
1C0780
3C0F80
FF1FE0
FE3FC0
ENDCHAR

STARTCHAR Abreve
ENCODING 195
SWIDTH 720 0
DWIDTH 18 0
BBX 19 21 0 0
BITMAP
0071C0
003F80
001F00
000000
001E00
003E00
007E00
007E00
00EF00
00EF00
01CF00
038F00
038F00
07FF00
0FFF80
0E0780
1E0780
1C0780
3C0F80
FF1FE0
FE3FC0
ENDCHAR

STARTCHAR Adieresis
ENCODING 196
SWIDTH 720 0
DWIDTH 18 0
BBX 19 23 0 0
BITMAP
0038E0
0079E0
0079E0
0071C0
000000
000000
001E00
003F00
003F00
007F00
00F700
00EF00
01CF80
03CF80
038780
07FF80
07FF80
0E0780
1E07C0
1C07C0
3C07C0
7F1FE0
FE3FE0
ENDCHAR

STARTCHAR Lacute
ENCODING 197
SWIDTH 640 0
DWIDTH 16 0
BBX 18 23 0 0
BITMAP
000700
000F00
001E00
001C00
000800
000000
0FF000
1FF000
07C000
078000
078000
078000
078000
0F0000
0F0000
0F0000
0F01C0
1F01C0
1E0380
1E0F80
7FFF00
FFFF00
FFFE00
ENDCHAR

STARTCHAR Cacute
ENCODING 198
SWIDTH 700 0
DWIDTH 17 0
BBX 17 23 2 0
BITMAP
000C00
001C00
003C00
007800
006000
000000
01F300
07FF00
1FFF80
3F0780
3E0380
7C0380
780380
F80000
F80000
F80000
F80000
F80200
7C0700
7E1E00
3FFC00
1FF800
07E000
ENDCHAR

STARTCHAR Ccedilla
ENCODING 199
SWIDTH 700 0
DWIDTH 17 0
BBX 17 22 2 -5
BITMAP
01F300
07FF00
1FFF00
3F0F00
3C0700
7C0380
780380
F80000
F80000
F80000
F80000
780200
7C0700
7E1E00
3FFC00
1FF800
05C000
020000
038000
00C000
04C000
078000
ENDCHAR

STARTCHAR Ccaron
ENCODING 200
SWIDTH 700 0
DWIDTH 17 0
BBX 17 23 2 0
BITMAP
008100
01EF00
00FE00
003800
001000
000000
01F300
07FF00
1FFF80
3F0780
3E0380
7C0380
780380
F80000
F80000
F80000
F80000
F80200
7C0700
7E1E00
3FFC00
1FF800
07E000
ENDCHAR

STARTCHAR Eacute
ENCODING 201
SWIDTH 720 0
DWIDTH 18 0
BBX 19 23 1 0
BITMAP
000700
000780
000F00
001E00
000800
000000
0FFF80
1FFFC0
0FFFC0
0781C0
0780E0
079C40
0F1C00
0FF800
0FF800
0F3800
1E38C0
1E31C0
1E03C0
1E0780
FFFF80
FFFF00
FFFF00
ENDCHAR

STARTCHAR Eogonek
ENCODING 202
SWIDTH 720 0
DWIDTH 18 0
BBX 20 21 0 -4
BITMAP
0FFFC0
0FFFC0
07FFE0
03C0E0
078070
078E60
079C00
07FC00
0FFC00
0F3800
0F1840
0F18E0
0F01C0
1E03C0
7FFF80
7FFF80
FFF700
000C00
001800
001E00
000E00
ENDCHAR

STARTCHAR Edieresis
ENCODING 203
SWIDTH 720 0
DWIDTH 18 0
BBX 20 23 0 0
BITMAP
0071C0
00F3C0
00F3C0
00E380
000000
000000
0FFFE0
0FFFE0
07FFE0
03C0F0
078070
078E20
079C00
07FC00
0FFC00
0F1C00
0F1870
0F18E0
1F01E0
1E03C0
7FFFC0
7FFF80
FFFF80
ENDCHAR

STARTCHAR Ecaron
ENCODING 204
SWIDTH 720 0
DWIDTH 18 0
BBX 19 23 1 0
BITMAP
004100
00F700
007F00
001C00
000000
000000
0FFF80
1FFFC0
0FFFC0
0781C0
0780E0
079C40
0F1C00
0FF800
0FF800
0F3800
1E38C0
1E31C0
1E03C0
1E0780
FFFF80
FFFF00
FFFF00
ENDCHAR

STARTCHAR Iacute
ENCODING 205
SWIDTH 380 0
DWIDTH 9 0
BBX 12 23 1 0
BITMAP
01E0
01E0
03C0
0700
0200
0000
1FF0
1FE0
0780
0780
0780
0F00
0F00
0F00
0F00
1F00
1E00
1E00
1E00
1E00
3E00
FF00
FF00
ENDCHAR

STARTCHAR Icircumflex
ENCODING 206
SWIDTH 380 0
DWIDTH 9 0
BBX 13 23 1 0
BITMAP
0080
03E0
0FF8
0630
0000
0000
1FF0
1FE0
0780
0780
0780
0F00
0F00
0F00
0F00
1F00
1E00
1E00
1E00
1E00
3E00
FF00
FF00
ENDCHAR

STARTCHAR Dcaron
ENCODING 207
SWIDTH 760 0
DWIDTH 19 0
BBX 20 23 1 0
BITMAP
002080
007380
003F00
001C00
000000
000000
0FFE00
1FFF80
0FFFC0
0783E0
0781E0
0781F0
0781F0
0F01F0
0F01F0
0F01E0
0F03E0
1F03E0
1E07C0
1E0F80
7FFF00
FFFE00
FFF000
ENDCHAR

STARTCHAR Dcroat
ENCODING 208
SWIDTH 760 0
DWIDTH 19 0
BBX 20 17 1 0
BITMAP
0FFE00
1FFF80
07FFC0
0783E0
0781E0
0781F0
0F01F0
3FF1F0
3FF1F0
0F01E0
0F03E0
1E03E0
1E07C0
1E0F80
7FFF00
FFFE00
FFF000
ENDCHAR

STARTCHAR Nacute
ENCODING 209
SWIDTH 740 0
DWIDTH 18 0
BBX 21 23 1 0
BITMAP
000780
000780
000F00
001C00
000800
000000
1FC3F8
1FE7F0
07E1E0
07E1C0
0771C0
0EF1C0
0EF380
0E7B80
0E7B80
0C7B80
1C7B00
1C3F00
1C3F00
1C3F00
3C1E00
FE1E00
FE1E00
ENDCHAR

STARTCHAR Ncaron
ENCODING 210
SWIDTH 740 0
DWIDTH 18 0
BBX 21 23 1 0
BITMAP
002080
007F80
001F00
000C00
000000
000000
1FC3F8
1FE7F0
07E1E0
07E1C0
0771C0
0EF1C0
0EF380
0E7B80
0E7B80
0C7B80
1C7B00
1C3F00
1C3F00
1C3F00
3C1E00
FE1E00
FE1E00
ENDCHAR

STARTCHAR Oacute
ENCODING 211
SWIDTH 760 0
DWIDTH 19 0
BBX 18 23 2 0
BITMAP
000600
000E00
001E00
003C00
003000
000000
01F000
07FE00
1FFF00
3F0F80
3E0780
7C07C0
7807C0
F807C0
F807C0
F807C0
F80780
F80F80
780F00
7C1F00
3FFE00
1FF800
03E000
ENDCHAR

STARTCHAR Ocircumflex
ENCODING 212
SWIDTH 760 0
DWIDTH 19 0
BBX 18 22 2 0
BITMAP
003000
00FC00
01EE00
008400
000000
01F000
07FE00
1FFF00
3F0F80
3E0780
7C07C0
7807C0
F807C0
F807C0
F807C0
F80780
F80F80
780F00
7C1F00
3FFE00
1FF800
03E000
ENDCHAR

STARTCHAR Ohungarumlaut
ENCODING 213
SWIDTH 760 0
DWIDTH 19 0
BBX 18 23 2 0
BITMAP
003180
007BC0
00F3C0
00E780
01C600
000000
01F000
07FE00
1FFF00
3F0F80
3E0780
7C07C0
7807C0
F807C0
F807C0
F807C0
F80780
F80F80
780F00
7C1F00
3FFE00
1FF800
03E000
ENDCHAR

STARTCHAR Odieresis
ENCODING 214
SWIDTH 760 0
DWIDTH 19 0
BBX 18 22 2 0
BITMAP
01C700
03CF00
03CF00
018E00
000000
01F000
07FE00
1FFF00
3E0F80
3C0780
7C07C0
7807C0
F807C0
F807C0
F807C0
F80F80
F80F80
781F00
7C3F00
3FFC00
1FF800
07C000
ENDCHAR

STARTCHAR multiply
ENCODING 215
SWIDTH 600 0
DWIDTH 15 0
BBX 11 11 4 3
BITMAP
4040
E0E0
71C0
3B80
1F00
0E00
1F00
3B80
71C0
E0E0
4040
ENDCHAR

STARTCHAR Rcaron
ENCODING 216
SWIDTH 740 0
DWIDTH 18 0
BBX 18 23 1 0
BITMAP
004100
00E700
007E00
003800
000000
000000
1FFE00
1FFF80
0FFFC0
0787C0
0783C0
0F03C0
0F07C0
0FFF80
0FFF00
1FF800
1E7C00
1E3C00
1E3E00
3E1E00
3E1F00
FF0FC0
FF0F80
ENDCHAR

STARTCHAR Uring
ENCODING 217
SWIDTH 740 0
DWIDTH 18 0
BBX 18 24 4 0
BITMAP
00F000
019800
019800
01B800
00F000
000000
000000
FF9FC0
FF1FC0
3C0700
3C0E00
780E00
780E00
780E00
781C00
781C00
F01C00
F01C00
F03800
F03800
F87800
7FF000
3FE000
0F0000
ENDCHAR

STARTCHAR Uacute
ENCODING 218
SWIDTH 740 0
DWIDTH 18 0
BBX 18 23 4 0
BITMAP
003C00
007C00
007800
00E000
004000
000000
FF9FC0
FF1FC0
3C0700
3C0E00
7C0E00
780E00
780E00
780C00
781C00
F01C00
F01C00
F01800
F03800
F87800
7FF000
3FE000
0F8000
ENDCHAR

STARTCHAR Uhungarumlaut
ENCODING 219
SWIDTH 740 0
DWIDTH 18 0
BBX 18 24 4 0
BITMAP
004200
00E700
01EF00
03CE00
039C00
010800
000000
FF9FC0
FF1FC0
3C0700
3C0E00
7C0E00
780E00
780E00
780C00
781C00
F01C00
F01C00
F01800
F03800
F87800
7FF000
3FE000
0F8000
ENDCHAR

STARTCHAR Udieresis
ENCODING 220
SWIDTH 740 0
DWIDTH 18 0
BBX 19 23 4 0
BITMAP
01C700
03CF00
03CF00
038E00
000000
000000
FF9FE0
FF1FC0
3C0700
3C0700
7C0700
780E00
780E00
780E00
780E00
F01C00
F01C00
F01C00
F03C00
F87800
7FF000
3FE000
0F8000
ENDCHAR

STARTCHAR Yacute
ENCODING 221
SWIDTH 660 0
DWIDTH 16 0
BBX 17 23 3 0
BITMAP
003800
007800
00F000
00E000
008000
000000
7FBF80
FF3F80
3C1E00
3E1C00
1E3C00
1E7800
1F7000
0F6000
0FC000
07C000
078000
078000
0F8000
0F0000
0F8000
3FC000
7FC000
ENDCHAR

STARTCHAR Tcommaaccent
ENCODING 222
SWIDTH 700 0
DWIDTH 17 0
BBX 17 24 3 -6
BITMAP
180300
3FFF00
3FFF80
79E780
71E380
E1E380
63E180
03C000
03C000
03C000
03C000
078000
078000
078000
078000
0F8000
3FE000
3FC000
000000
0C0000
0E0000
0E0000
060000
1C0000
ENDCHAR

STARTCHAR germandbls
ENCODING 223
SWIDTH 660 0
DWIDTH 16 0
BBX 21 23 -3 -5
BITMAP
0007C0
001FF0
003FF0
007878
007878
0073F0
03F7E0
03F700
00F780
00F7C0
01E3E0
01E1F0
01E0F0
01E870
01DC70
03DFF0
03CFE0
03C700
038000
E78000
FF0000
7E0000
380000
ENDCHAR

STARTCHAR racute
ENCODING 224
SWIDTH 500 0
DWIDTH 13 0
BBX 13 19 2 0
BITMAP
0010
0038
0078
00F0
00E0
0000
0000
1EF0
7EF8
7FF8
3F30
3E00
3C00
3C00
7C00
7800
7800
7800
F000
ENDCHAR

STARTCHAR aacute
ENCODING 225
SWIDTH 680 0
DWIDTH 17 0
BBX 16 18 2 0
BITMAP
0038
0078
0078
00F0
00C0
0000
078E
1FEC
3FFC
7C3C
783C
F078
F078
F0F8
F1FA
FFFF
7F7E
3C3C
ENDCHAR

STARTCHAR acircumflex
ENCODING 226
SWIDTH 680 0
DWIDTH 17 0
BBX 16 18 2 0
BITMAP
0010
0078
01FC
01CE
0000
0000
078E
1FEC
3FFC
7C3C
783C
F078
F078
F0F8
F1FA
FFFF
7F7E
3C3C
ENDCHAR

STARTCHAR abreve
ENCODING 227
SWIDTH 680 0
DWIDTH 17 0
BBX 16 17 2 0
BITMAP
0186
01FE
00FC
0000
0000
078E
1FEC
3FFC
7C3C
783C
F078
F078
F0F8
F1FA
FFFF
7F7E
3C3C
ENDCHAR

STARTCHAR adieresis
ENCODING 228
SWIDTH 680 0
DWIDTH 17 0
BBX 17 18 2 0
BITMAP
01C700
03CF00
03CF00
038E00
000000
000000
078E00
1FEE00
3FFC00
7C3C00
783C00
F07C00
F07800
F0F800
F1F900
FFFF80
7F7F00
3C3C00
ENDCHAR

STARTCHAR lacute
ENCODING 229
SWIDTH 380 0
DWIDTH 9 0
BBX 8 24 3 0
BITMAP
03
07
0F
1E
18
06
7E
7E
5E
3C
3C
3C
3C
38
78
78
78
78
70
F0
F2
FE
7E
38
ENDCHAR

STARTCHAR cacute
ENCODING 230
SWIDTH 560 0
DWIDTH 14 0
BBX 13 18 2 0
BITMAP
0070
00F0
01F0
03C0
0100
0000
03C0
1FF0
3FF8
7C78
7870
F000
F000
F000
F860
7FF0
7FC0
1F00
ENDCHAR

STARTCHAR ccedilla
ENCODING 231
SWIDTH 560 0
DWIDTH 14 0
BBX 13 17 2 -5
BITMAP
03C0
1FF0
3FF8
7C70
7870
F000
F000
F000
F860
7FF0
7FC0
1F00
0800
0E00
0300
1B00
1E00
ENDCHAR

STARTCHAR ccaron
ENCODING 232
SWIDTH 560 0
DWIDTH 14 0
BBX 13 18 2 0
BITMAP
0208
07B8
03F8
00E0
0000
0000
03C0
1FF0
3FF8
7C78
7870
F000
F000
F000
F860
7FF0
7FC0
1F00
ENDCHAR

STARTCHAR eacute
ENCODING 233
SWIDTH 560 0
DWIDTH 14 0
BBX 13 19 2 0
BITMAP
0020
0070
00F0
01E0
01C0
0000
0000
07F0
1FF8
3E38
7C78
F9F8
FFE0
FF00
F010
F878
7FF0
7FE0
1F00
ENDCHAR

STARTCHAR eogonek
ENCODING 234
SWIDTH 560 0
DWIDTH 14 0
BBX 13 16 2 -4
BITMAP
07E0
1FF0
3E78
7878
F9F0
FFE0
FF00
F020
F870
7FF0
3FC0
1700
0C00
0C00
0F00
0700
ENDCHAR

STARTCHAR edieresis
ENCODING 235
SWIDTH 560 0
DWIDTH 14 0
BBX 14 18 2 0
BITMAP
039C
07BC
07BC
0718
0000
0000
07F0
1FF8
3E38
7C38
F8F8
FFF0
F780
F800
F838
7FF0
7FE0
1F80
ENDCHAR

STARTCHAR ecaron
ENCODING 236
SWIDTH 560 0
DWIDTH 14 0
BBX 14 18 2 0
BITMAP
0308
07FC
01F0
00C0
0000
0000
07F0
1FF8
3E38
7C78
F8F8
FFF0
FF80
F000
F878
7FF0
7FE0
1F00
ENDCHAR

STARTCHAR iacute
ENCODING 237
SWIDTH 380 0
DWIDTH 9 0
BBX 10 19 3 -1
BITMAP
01C0
03C0
0780
0F00
0400
0000
0E00
FC00
FC00
FC00
3800
7800
7800
7800
F000
F200
FF00
7E00
3C00
ENDCHAR

STARTCHAR icircumflex
ENCODING 238
SWIDTH 380 0
DWIDTH 9 0
BBX 10 19 3 -1
BITMAP
0400
0E00
7FC0
3380
0000
0000
0E00
FC00
FC00
FC00
3800
7800
7800
7800
F000
F200
FF00
7E00
3C00
ENDCHAR

STARTCHAR dcaron
ENCODING 239
SWIDTH 798 0
DWIDTH 20 0
BBX 21 18 2 0
BITMAP
000330
003F78
003F78
007E78
001E18
001E30
07DEE0
1FFCC0
3FFC00
7C3C00
783C00
F87C00
F07800
F0F800
F9F800
FFFF00
7F7F00
3C3C00
ENDCHAR

STARTCHAR dcroat
ENCODING 240
SWIDTH 680 0
DWIDTH 17 0
BBX 18 17 2 0
BITMAP
001F00
007E00
001E00
01FFC0
001E00
079C00
1FFC00
3FFC00
7C3C00
783800
F87800
F07800
F0F800
F1F800
FFFF00
7F7E00
3C3C00
ENDCHAR

STARTCHAR nacute
ENCODING 241
SWIDTH 680 0
DWIDTH 17 0
BBX 17 18 2 0
BITMAP
001C00
003C00
007C00
007000
004000
000000
0E7800
7DFC00
FFFC00
3F3C00
3E3C00
3C3C00
3C3800
787800
787900
787F80
703F00
F01C00
ENDCHAR

STARTCHAR ncaron
ENCODING 242
SWIDTH 680 0
DWIDTH 17 0
BBX 17 18 2 0
BITMAP
010400
01EE00
00FC00
007000
000000
000000
0E7800
7DFC00
FFFC00
3F3C00
3E3C00
3C3C00
3C3800
787800
787900
787F80
703F00
F01C00
ENDCHAR

STARTCHAR oacute
ENCODING 243
SWIDTH 600 0
DWIDTH 15 0
BBX 13 18 2 0
BITMAP
0070
00F0
00F0
01E0
0080
0000
0780
1FE0
3FF0
7878
F878
F078
F078
F0F8
F0F0
7FE0
3FC0
0F00
ENDCHAR

STARTCHAR ocircumflex
ENCODING 244
SWIDTH 600 0
DWIDTH 15 0
BBX 13 18 2 0
BITMAP
0080
03C0
0FE0
0670
0000
0000
0780
1FE0
3FF0
7878
F878
F078
F078
F0F8
F0F0
7FE0
3FC0
0F00
ENDCHAR

STARTCHAR ohungarumlaut
ENCODING 245
SWIDTH 600 0
DWIDTH 15 0
BBX 15 18 2 0
BITMAP
01CE
03DE
03DE
0738
0630
0000
0780
1FE0
3FF0
7878
F878
F078
F078
F0F8
F0F0
7FE0
3FC0
0F00
ENDCHAR

STARTCHAR odieresis
ENCODING 246
SWIDTH 600 0
DWIDTH 15 0
BBX 13 18 3 0
BITMAP
0738
0F78
0F78
0E30
0000
0000
0780
1FE0
3FF0
7878
F878
F078
F078
F0F8
F0F0
7FE0
3FC0
0F00
ENDCHAR

STARTCHAR divide
ENCODING 247
SWIDTH 600 0
DWIDTH 15 0
BBX 13 11 3 3
BITMAP
0700
0700
0700
0000
FFF8
FFF8
0000
0000
0700
0700
0700
ENDCHAR

STARTCHAR rcaron
ENCODING 248
SWIDTH 500 0
DWIDTH 13 0
BBX 13 18 2 0
BITMAP
0218
07F8
01F0
00C0
0000
0000
1EF0
7EF8
7FF8
3F30
3E00
3C00
3C00
7C00
7800
7800
7800
F000
ENDCHAR

STARTCHAR uring
ENCODING 249
SWIDTH 680 0
DWIDTH 17 0
BBX 16 19 2 0
BITMAP
00F0
0198
0198
01F8
00F0
0000
0000
0E1E
7E3C
FC3C
3C3C
3C7C
3C78
3878
78F8
79F9
7FFF
3F7E
1C3C
ENDCHAR

STARTCHAR uacute
ENCODING 250
SWIDTH 680 0
DWIDTH 17 0
BBX 16 18 2 0
BITMAP
001C
003C
003C
0078
0060
0000
0E1E
7E1C
FC3C
3C3C
3C3C
3C78
3878
78F8
79F9
7FBF
3F7F
1C3C
ENDCHAR

STARTCHAR uhungarumlaut
ENCODING 251
SWIDTH 680 0
DWIDTH 17 0
BBX 17 18 2 0
BITMAP
007380
00F780
00F780
01CF00
018C00
000000
0E1E00
7E1C00
FC3C00
3C3C00
3C3C00
3C7800
387800
78F800
79F900
7FFF00
3F7F00
1C3C00
ENDCHAR

STARTCHAR udieresis
ENCODING 252
SWIDTH 680 0
DWIDTH 17 0
BBX 16 18 2 0
BITMAP
038E
079E
079E
031C
0000
0000
0E1E
7C3E
FC3C
3C3C
3C7C
387C
3878
78F8
79F9
7FFF
3F7F
1C3C
ENDCHAR

STARTCHAR yacute
ENCODING 253
SWIDTH 600 0
DWIDTH 15 0
BBX 16 23 1 -5
BITMAP
000C
001E
003C
0078
0020
0000
070F
3F1E
7E1E
1E1E
1E1E
1E3C
1C3C
3C7C
3CFC
3FF8
3FB8
0E78
40F0
E1F0
FFE0
FFC0
3E00
ENDCHAR

STARTCHAR tcommaaccent
ENCODING 254
SWIDTH 440 0
DWIDTH 11 0
BBX 10 22 3 -6
BITMAP
0E00
1C00
1C00
7C00
FFC0
FF80
7800
7800
7800
7800
F000
F100
F380
FF00
7E00
3C00
0000
7000
7000
7000
3000
E000
ENDCHAR

STARTCHAR dotaccent
ENCODING 255
SWIDTH 380 0
DWIDTH 9 0
BBX 4 4 6 14
BITMAP
70
F0
F0
E0
ENDCHAR
ENDFONT
